<svg width="285" height="286" viewBox="0 0 285 286" fill="none" xmlns="http://www.w3.org/2000/svg">
<path d="M54.2632 270.446L51.6271 275.718C48.7359 281.48 42.8471 285.115 36.4057 285.115H17.0387C4.38962 285.115 -3.83761 271.807 1.81728 260.497L12.4255 239.281C25.7124 250.463 39.6795 260.88 54.242 270.446H54.2632Z" fill="#6388E5"/>
<path d="M266.449 284.031C256.16 283.265 245.977 282.075 235.943 280.481L157.795 124.206C151.523 111.663 133.644 111.663 127.373 124.206L80.1354 218.681C65.658 208.816 51.9035 197.953 38.9568 186.239L127.373 9.4071C133.644 -3.1357 151.523 -3.1357 157.795 9.4071L282.819 259.434C288.707 271.19 279.566 285.009 266.449 284.01V284.031Z" fill="#6388E5"/>
</svg>
